<svg width="309" height="481" viewBox="0 0 309 481" fill="none" xmlns="http://www.w3.org/2000/svg">
<path d="M134.668 216.691C134.668 224.916 135.583 233.14 135.583 241.364C136.498 256.638 132.838 269.561 124.602 280.136C112.707 295.409 98.9807 303.633 81.5946 304.808C55.973 305.983 34.9266 294.234 17.5405 270.736C9.305 260.162 4.72977 247.239 1.98459 233.14C-0.760587 216.691 1.98456 202.593 10.2201 189.669C20.2857 174.395 34.0116 164.996 49.5676 162.646C74.2741 157.947 98.0656 161.471 120.027 175.57C143.819 189.669 159.375 213.167 166.695 247.239C171.27 268.387 169.44 288.36 159.375 305.983C152.969 317.732 144.734 324.781 134.668 329.481C120.027 336.53 105.386 340.055 89.8301 341.23C69.6989 342.405 49.5676 338.88 30.3514 331.831C3.81467 322.432 -17.2316 302.458 -33.7027 275.436C-40.1081 264.862 -44.6834 253.113 -48.3436 240.189C-54.749 213.167 -52.0038 187.319 -40.1081 162.646C-23.6371 128.574 0.154451 106.252 31.2664 100.377C83.4247 89.8031 131.923 103.902 175.846 140.323C193.232 154.422 207.873 174.395 220.683 195.543C247.22 242.539 239.9 303.633 213.363 341.23C202.382 356.503 189.571 368.252 174.931 377.651C157.544 387.05 140.158 394.1 121.857 396.45C83.4247 401.149 44.9923 396.45 8.38999 378.826C-29.1274 360.028 -57.4942 327.131 -73.9652 280.136C-98.6718 208.467 -90.4363 128.574 -45.5984 67.4802C-17.2316 28.7088 18.4556 6.38586 60.5483 1.68629C104.471 -4.18816 144.734 5.21096 184.081 31.0586C219.768 54.5564 249.965 85.1035 274.672 126.225C294.803 159.122 305.784 195.543 308.529 236.664C311.274 287.185 302.124 333.006 278.332 372.952C267.351 391.75 255.456 407.024 240.815 419.947C216.108 443.445 188.656 459.894 158.459 470.468C129.178 481.042 99.8958 483.392 69.6989 478.692C24.861 470.468 -18.1467 454.019 -57.4942 423.472C-75.7953 409.373 -91.3513 392.925 -105.992 372.952C-118.803 355.328 -127.954 335.355 -134.359 313.032C-141.68 289.535 -145.34 266.037 -148.085 241.364C-149.915 221.391 -149 202.593 -145.34 182.62C-140.764 155.597 -133.444 132.099 -122.463 108.601C-119.718 102.727 -116.058 99.2022 -111.483 96.8524C-105.992 93.3278 -96.8417 98.0274 -95.9266 106.252C-95.0116 110.951 -95.0116 116.826 -96.8417 121.525C-98.6718 128.574 -101.417 134.449 -104.162 141.498C-126.124 195.543 -125.208 250.763 -108.737 305.983C-104.162 321.257 -97.7567 335.355 -89.5212 348.279C-66.6447 383.526 -38.278 407.024 -5.3359 423.472C25.7761 437.571 58.7182 444.62 91.6603 446.97C115.452 448.145 138.328 443.445 160.29 434.046C178.591 425.822 195.977 415.248 212.448 402.324C226.174 391.75 238.07 377.651 249.05 362.378C275.587 322.432 284.738 275.436 278.332 223.741C274.672 196.718 266.436 172.045 253.626 150.897C242.645 132.099 229.834 114.476 215.193 99.2022C183.166 66.3052 147.479 43.9824 107.216 35.7581C82.5097 31.0586 57.8031 32.2335 33.0965 41.6326C-6.25098 56.9062 -33.7027 90.978 -51.0888 136.799C-62.9846 166.171 -64.8147 197.893 -60.2394 229.615C-48.3436 304.808 -11.7413 348.279 44.9923 367.077C73.3591 376.477 102.641 376.477 131.008 374.127C146.564 372.952 161.205 367.077 174.931 358.853C189.571 349.454 202.382 337.705 211.533 320.082C228.004 289.535 231.664 257.813 218.853 223.741C214.278 209.642 206.958 196.718 198.722 184.969C182.251 161.471 162.12 145.023 139.243 133.274C117.282 122.7 94.4054 118 70.6139 115.651C56.8881 114.476 43.1622 118 30.3514 121.525C10.2201 127.4 -5.33587 143.848 -18.1467 164.996C-33.7027 193.194 -33.7027 222.566 -18.1467 250.763C-3.50576 276.611 15.7105 295.409 39.502 303.633C60.5483 310.683 82.5097 311.857 104.471 310.683C114.537 309.508 124.602 305.983 134.668 300.109C147.479 291.884 153.884 274.261 152.054 256.638C150.224 244.889 147.479 233.14 141.988 222.566C138.328 219.041 136.498 217.866 134.668 216.691C131.923 211.992 131.923 211.992 126.432 214.342C122.772 213.167 122.772 210.817 123.687 206.117C124.602 204.942 124.602 202.593 125.517 201.418C123.687 200.243 121.857 197.893 119.112 196.718C98.9807 180.27 77.0193 177.92 55.0579 180.27C46.8224 181.445 39.502 183.794 32.1815 189.669C16.6255 201.418 12.9652 219.041 21.2008 240.189C26.6911 254.288 34.0116 266.037 45.9074 271.911C60.5483 278.96 75.1892 282.485 90.7452 270.736C88.9151 267.212 88 263.687 86.1699 260.162C81.5946 253.113 79.7645 246.064 77.9344 237.839C76.1043 230.79 77.0193 223.741 79.7645 216.691C84.3398 206.117 91.6603 200.243 100.811 199.068C107.216 197.893 113.622 197.893 120.027 196.718C120.942 199.068 121.857 202.593 125.517 201.418C125.517 206.117 126.432 209.642 126.432 214.342C129.178 215.516 131.923 216.691 134.668 216.691Z" fill="#AA0505" fill-opacity="0.05"/>
</svg>
